<?xml version="1.0" standalone="no"?>
<!DOCTYPE svg PUBLIC "-//W3C//DTD SVG 1.1//EN" "http://www.w3.org/Graphics/SVG/1.1/DTD/svg11.dtd" >
<svg>
<metadata>
Created by FontForge 20090622 at Fri Nov  6 09:23:09 2015
 By deploy user
Copyright (c) 1990-1997 ParaGraph
</metadata>
<defs>
<font id="MagistralC" horiz-adv-x="681" >
  <font-face 
    font-family="MagistralC"
    font-weight="500"
    font-stretch="normal"
    units-per-em="1000"
    panose-1="0 0 0 0 0 0 0 0 0 0"
    ascent="800"
    descent="-200"
    x-height="530"
    cap-height="700"
    bbox="-420 -179.887 1139 879"
    underline-thickness="50"
    underline-position="-75"
    unicode-range="U+0020-U+00FF"
  />
<missing-glyph horiz-adv-x="233" 
 />
    <glyph glyph-name=".notdef" horiz-adv-x="233" 
 />
    <glyph glyph-name=".null" horiz-adv-x="0" 
 />
    <glyph glyph-name="nonmarkingreturn" horiz-adv-x="333" 
 />
    <glyph glyph-name="space" unicode=" " horiz-adv-x="233" 
 />
    <glyph glyph-name="exclam" unicode="!" horiz-adv-x="194" 
d="M124 158h-54v542h54v-542zM70 0v77h54v-77h-54z" />
    <glyph glyph-name="quotedbl" unicode="&#x22;" horiz-adv-x="262" 
d="M50 513v187h54v-187h-54zM158 513v187h54v-187h-54z" />
    <glyph glyph-name="numbersign" unicode="#" horiz-adv-x="800" 
d="M92 0l78 195h-140l19 47h140l92 227h-140l19 47h140l74 184h52l-74 -184h226l74 184h52l-74 -184h140l-19 -47h-140l-92 -227h140l-19 -47h-140l-78 -195h-52l78 195h-226l-78 -195h-52zM467 242l92 227h-226l-92 -227h226z" />
    <glyph glyph-name="dollar" unicode="$" horiz-adv-x="650" 
d="M66 0v47h236v291l-152 57q-50 19 -72 46q-28 34 -28 102q0 70 33 110q25 29 52.5 38t67.5 9h99v68h44v-68h220v-47h-220v-280l132 -50q53 -19 83 -49q39 -38 39 -111q0 -91 -48 -131q-18 -15 -41 -22.5t-38.5 -8.5t-44.5 -1h-82v-68h-44v68h-236zM346 47h100q49 0 77 33
q21 25 21 76q0 89 -72 117l-126 48v-274zM302 390v263h-105q-50 0 -73 -31q-18 -24 -18 -81q0 -77 52 -97z" />
    <glyph glyph-name="percent" unicode="%" 
d="M182 706q63 0 94 -31q38 -38 38 -136t-38 -136q-31 -31 -94 -31t-94 31q-38 38 -38 136t38 136q31 31 94 31zM100 539q0 -73 20 -100q20 -26 62 -26t62 26q20 27 20 100t-20 100q-20 26 -62 26t-62 -26q-20 -27 -20 -100zM160 0l318 700h47l-318 -700h-47zM499 328
q63 0 94 -31q38 -38 38 -136t-38 -136q-31 -31 -94 -31t-94 31q-38 38 -38 136t38 136q31 31 94 31zM417 161q0 -72 22 -100q20 -26 60 -26q41 0 60 26q22 28 22 100t-22 100q-19 26 -60 26q-40 0 -60 -26q-22 -28 -22 -100z" />
    <glyph glyph-name="ampersand" unicode="&#x26;" horiz-adv-x="632" 
d="M505 323v-247q0 -44 -13 -59q-14 -17 -63 -17h-208q-29 0 -46 1.5t-43 12.5t-44 33q-38 46 -38 144q0 79 22 110q26 38 77 47v2q-44 5 -70 42q-29 41 -29 123q0 101 42 144q39 41 119 41h299v-47h-290q-58 0 -84 -24q-30 -28 -30 -110q0 -83 28 -113q33 -36 104 -36h384
v-47h-117zM412 47q32 0 38 6q7 6 7 27v243h-254q-60 0 -85 -45q-12 -22 -12 -97q0 -69 17 -95q17 -25 40.5 -32t56.5 -7h192z" />
    <glyph glyph-name="quotesingle" unicode="'" horiz-adv-x="154" 
d="M50 513v187h54v-187h-54z" />
    <glyph glyph-name="parenleft" unicode="(" horiz-adv-x="324" 
d="M120 428v-306q0 -96 28 -144q47 -79 146 -86v-46q-83 3 -145 55q-54 44 -70 118q-9 42 -9 129v254q0 94 10 136q18 70 69 112q59 48 145 54v-46q-99 -7 -146 -86q-28 -48 -28 -144z" />
    <glyph glyph-name="parenright" unicode=")" horiz-adv-x="324" 
d="M204 122v306q0 96 -28 144q-47 79 -146 86v46q86 -6 145 -54q51 -42 69 -112q10 -42 10 -136v-254q0 -87 -9 -129q-16 -74 -70 -118q-62 -52 -145 -55v46q99 7 146 86q28 48 28 144z" />
    <glyph glyph-name="asterisk" unicode="*" horiz-adv-x="508" 
d="M233 252v188l-162 -94l-21 36l162 94l-162 94l21 36l162 -94v188h42v-188l162 94l21 -36l-162 -94l162 -94l-21 -36l-162 94v-188h-42z" />
    <glyph glyph-name="plus" unicode="+" horiz-adv-x="566" 
d="M310 100h-54v186h-186v48h186v186h54v-186h186v-48h-186v-186z" />
    <glyph glyph-name="comma" unicode="," horiz-adv-x="194" 
d="M48 -86l-48 29l96 161l48 -29z" />
    <glyph glyph-name="hyphenminus" unicode="-" horiz-adv-x="400" 
d="M50 242v58h300v-58h-300z" />
    <glyph glyph-name="period" unicode="." horiz-adv-x="160" 
d="M110 0h-60v87h60v-87z" />
    <glyph glyph-name="slash" unicode="/" horiz-adv-x="468" 
d="M40 -163h-50l438 903h50z" />
    <glyph glyph-name="zero" unicode="0" horiz-adv-x="612" 
d="M50 234v248q0 108 70 170q38 34 82 44t104 10t104 -10t82 -44q70 -62 70 -170v-248q0 -141 -86 -201q-11 -8 -22 -13.5t-20 -9.5t-22 -6.5l-20.5 -4t-22 -2t-20 -0.5h-22h-21.5h-21.5h-22t-20 0.5t-22 2l-20.5 4t-22 6.5t-20 9.5t-22 13.5q-86 60 -86 201zM104 467v-214
q0 -35 1.5 -56t11 -50.5t28.5 -50.5q29 -33 67.5 -42t92.5 -9q37 0 59.5 2t52.5 14t50 35q19 21 28.5 50.5t11 50.5t1.5 56v214q0 108 -65 155q-49 36 -137 36t-137 -36q-65 -47 -65 -155z" />
    <glyph glyph-name="one" unicode="1" horiz-adv-x="209" 
d="M85 0v612q0 22 -4 30q-6 10 -20 10h-71v48h84q31 0 47 -13q18 -15 18 -54v-633h-54z" />
    <glyph glyph-name="two" unicode="2" horiz-adv-x="585" 
d="M102 0q-52 0 -52 48q0 34 27 55l349 276q31 24 42 52t11 83q0 81 -18 106q-23 32 -81 32h-278v48h273q84 0 120 -37q40 -41 40 -146q0 -86 -30 -129q-18 -27 -49 -50l-338 -268q-2 -1 -7 -6t-5 -8q0 -8 9 -8h380v-48h-393z" />
    <glyph glyph-name="three" unicode="3" horiz-adv-x="564" 
d="M50 0v48h285q67 0 88 16q35 25 35 114q0 94 -33 125q-27 25 -76 25h-281v48h276q59 0 85 28q25 27 25 109q0 81 -22 110t-63 29h-303v48h294q24 0 40 -2t39.5 -13t39.5 -33q31 -42 31 -139q0 -92 -30 -129q-25 -29 -64 -33v-2q39 -5 63 -33q35 -39 35 -130
q0 -102 -39 -147q-35 -39 -108 -39h-317z" />
    <glyph glyph-name="four" unicode="4" horiz-adv-x="610" 
d="M453 0v139h-356q-39 0 -55 12q-22 15 -22 45q0 25 25 53l358 423q31 36 65 36q22 0 32 -13q7 -10 7 -33v-475h73v-48h-73v-139h-54zM453 187v460q0 3 -4 3q-1 0 -10 -9l-350 -417q-15 -18 -15 -24q0 -13 21 -13h358z" />
    <glyph glyph-name="five" unicode="5" horiz-adv-x="571" 
d="M50 0v48h318q54 0 77 41q20 33 20 120q0 65 -19 93q-23 33 -68 33h-189q-71 0 -100 22q-38 29 -38 86v185q0 34 19 53q18 19 53 19h371v-48h-362q-15 0 -21 -8t-6 -29v-152q0 -40 10 -55q17 -25 56 -25h206q73 0 108 -41q36 -42 36 -140q0 -121 -47 -167
q-36 -35 -108 -35h-316z" />
    <glyph glyph-name="six" unicode="6" horiz-adv-x="570" 
d="M104 418h233q84 0 128 -40q55 -50 55 -165q0 -93 -30 -141q-44 -72 -158 -72h-102q-71 0 -114 29q-66 44 -66 162v330q0 102 62 148q40 31 106 31h268v-48h-257q-61 0 -93 -34t-32 -94v-106zM104 370v-192q0 -65 28 -96q30 -34 96 -34h104q70 0 102 40q30 38 30 128
q0 81 -33 117q-35 37 -107 37h-220z" />
    <glyph glyph-name="seven" unicode="7" horiz-adv-x="465" 
d="M34 0l381 605q12 19 12 31q0 16 -17 16h-430v48h440q18 0 30.5 -2.5t23.5 -15t11 -35.5q0 -31 -20 -63l-370 -584h-61z" />
    <glyph glyph-name="eight" unicode="8" horiz-adv-x="590" 
d="M242 700h106q93 0 131 -36q44 -42 44 -156q0 -83 -32 -120q-21 -26 -55 -33v-2q39 -6 63 -28q41 -39 41 -145q0 -84 -31 -124q-44 -56 -137 -56h-154q-93 0 -137 56q-31 40 -31 124q0 106 41 145q24 22 63 28v2q-34 7 -55 33q-32 37 -32 120q0 114 44 156q38 36 131 36z
M234 378h122q69 0 94 38q17 26 17 94q0 90 -35 121q-25 21 -87 21h-100q-62 0 -87 -21q-35 -31 -35 -121q0 -68 17 -94q25 -38 94 -38zM218 48h154q62 0 88 35q24 31 24 107q0 87 -39 118q-28 22 -77 22h-146q-49 0 -77 -22q-39 -31 -39 -118q0 -76 24 -107q26 -35 88 -35z
" />
    <glyph glyph-name="nine" unicode="9" horiz-adv-x="570" 
d="M91 0v48h231q77 0 110 34q34 36 34 127v81h-258q-74 0 -116 49q-42 48 -42 154q0 120 56 169q45 38 141 38h77q122 0 166 -64q30 -44 30 -122v-286q0 -98 -24 -146q-42 -82 -155 -82h-250zM466 338v175q0 72 -32 105q-33 34 -100 34h-99q-61 0 -93 -35q-36 -38 -36 -123
q0 -91 35 -126q30 -30 108 -30h217z" />
    <glyph glyph-name="colon" unicode=":" horiz-adv-x="180" 
d="M120 449h-60v81h60v-81zM120 0h-60v81h60v-81z" />
    <glyph glyph-name="semicolon" unicode=";" horiz-adv-x="204" 
d="M48 -86l-48 29l96 161l48 -29zM144 449h-60v81h60v-81z" />
    <glyph glyph-name="less" unicode="&#x3c;" horiz-adv-x="567" 
d="M70 331l427 215v-54l-331 -161l331 -161v-54z" />
    <glyph glyph-name="equal" unicode="=" horiz-adv-x="566" 
d="M496 232h-426v48h426v-48zM496 340h-426v48h426v-48z" />
    <glyph glyph-name="greater" unicode="&#x3e;" horiz-adv-x="567" 
d="M497 331l-427 -215v54l331 161l-331 161v54z" />
    <glyph glyph-name="question" unicode="?" horiz-adv-x="437" 
d="M161 158h-54v76q0 45 19 72q15 23 58 48l92 54q39 23 52 49.5t13 66.5q0 70 -24 98q-25 30 -83 30h-224v48h231q76 0 115 -40q41 -42 41 -129q0 -69 -23.5 -103t-69.5 -61l-98 -58q-23 -13 -34 -29q-11 -18 -11 -36v-86zM107 0v77h54v-77h-54z" />
    <glyph glyph-name="at" unicode="@" horiz-adv-x="973" 
d="M675 -148h-303q-168 0 -246 108q-39 54 -52.5 132t-13.5 194q0 122 11.5 189t54.5 121q51 63 120.5 83.5t161.5 20.5h181q30 0 50.5 -1t57 -7.5t63 -19t56 -37.5t50.5 -60q30 -51 38.5 -110t8.5 -142q0 -152 -30 -214q-21 -44 -53.5 -61.5t-80.5 -17.5q-12 0 -24 2
t-32.5 9.5t-36.5 27.5t-23 50q-51 -89 -179 -89q-114 0 -160 82q-30 54 -30 163q0 104 27 159q48 94 165 94h130q46 0 67 -21q5 -5 9 -11t5.5 -10.5t2.5 -11.5t1 -10v-11v-10v-236q0 -24 1.5 -38t8 -39.5t25 -39t47.5 -13.5q65 0 90 71q14 38 14 184q0 141 -32 206
q-34 69 -93.5 92t-137.5 23h-191q-41 0 -73 -4t-73 -17.5t-71.5 -45.5t-47.5 -80q-22 -66 -22 -219q0 -151 20 -221q49 -167 249 -167h290v-47zM619 448q0 14 -8 24q-9 10 -32 10h-103q-29 0 -49 -3t-44.5 -17t-38.5 -41q-24 -45 -24 -144q0 -83 12 -122q16 -48 47 -63
t78 -15q91 0 129 56q33 47 33 138v177z" />
    <glyph glyph-name="A" unicode="A" horiz-adv-x="672" 
d="M-10 0l268 634q15 35 32.5 54.5t45.5 19.5t45.5 -19.5t32.5 -54.5l268 -634h-58l-85 204h-406l-85 -204h-58zM307 618l-153 -366h364l-153 366q-17 40 -29 40t-29 -40z" />
    <glyph glyph-name="B" unicode="B" 
d="M70 90v518q0 43 20 68q21 24 62 24h323q68 0 105 -39q44 -45 44 -150q0 -79 -30 -118q-25 -32 -64 -37v-4q45 -5 72 -38q14 -17 21 -40.5t7.5 -38.5t0.5 -46q0 -35 -1 -52.5t-11 -45.5t-30 -50q-23 -25 -45.5 -33t-54.5 -8h-309h-11h-13t-13 0.5t-14.5 2t-12.5 4
t-13.5 6.5t-11.5 10q-21 22 -21 67zM124 612v-236h328q68 0 92 31q22 28 22 111q0 81 -32 113q-22 21 -67 21h-303q-23 0 -30 -8q-10 -10 -10 -32zM124 328v-226q0 -34 7 -43q9 -11 46 -11h279q71 0 95 33q22 29 22 107q0 76 -18 103q-10 15 -30.5 26t-41.5 11h-359z" />
    <glyph glyph-name="C" unicode="C" horiz-adv-x="639" 
d="M619 0h-282q-130 0 -209 79q-43 43 -60.5 105.5t-17.5 155.5q0 90 14.5 158t60.5 117q78 85 215 85h268v-48h-245q-140 0 -203 -81q-52 -67 -52 -232q0 -142 46 -206q61 -85 194 -85h271v-48z" />
    <glyph glyph-name="D" unicode="D" horiz-adv-x="728" 
d="M416 0h-248q-52 0 -73 17q-25 19 -25 60v523q0 49 24 74q25 26 66 26h238q121 0 201 -81q35 -36 54 -85.5t22 -84.5t3 -87q0 -189 -70 -278q-66 -84 -192 -84zM124 614v-522q0 -29 7 -36q8 -8 32 -8h251q118 0 168 93q38 72 38 225q0 69 -10.5 119.5t-43.5 91.5
q-60 75 -165 75h-236q-19 0 -28 -7q-13 -11 -13 -31z" />
    <glyph glyph-name="E" unicode="E" horiz-adv-x="620" 
d="M580 0h-415q-52 0 -73 21q-22 22 -22 76v510q0 43 20 67q22 26 73 26h413v-48h-405q-24 0 -36 -10q-11 -9 -11 -35v-225h442v-48h-442v-249q0 -19 10 -28t45 -9h401v-48z" />
    <glyph glyph-name="F" unicode="F" horiz-adv-x="574" 
d="M124 0h-54v629q0 31 19 50q20 21 63 21h402v-48h-406q-13 0 -18 -6q-6 -7 -6 -22v-244h314v-48h-314v-332z" />
    <glyph glyph-name="G" unicode="G" horiz-adv-x="704" 
d="M654 321v-243q0 -41 -19 -59q-19 -19 -63 -19h-271q-90 0 -153 51q-60 48 -79 123t-19 172q0 52 4 91t16 84t38.5 80.5t66.5 59.5q65 39 163 39h300v-48h-315q-63 0 -111 -28.5t-72 -76.5q-32 -64 -32 -197q0 -135 31 -201q21 -44 62 -72.5t99 -28.5h258q24 0 33 11
q9 10 9 33v229h54z" />
    <glyph glyph-name="H" unicode="H" horiz-adv-x="702" 
d="M632 700v-700h-54v332h-454v-332h-54v700h54v-320h454v320h54z" />
    <glyph glyph-name="I" unicode="I" horiz-adv-x="194" 
d="M124 0h-54v700h54v-700z" />
    <glyph glyph-name="J" unicode="J" horiz-adv-x="392" 
d="M-20 0v48h128q71 0 114 41q46 45 46 145v466h54v-465q0 -114 -54 -171q-62 -64 -149 -64h-139z" />
    <glyph glyph-name="K" unicode="K" horiz-adv-x="626" 
d="M70 0v700h54v-700h-54zM656 0h-81l-351 271q-61 47 -61 89q0 37 50 76l328 264h78l-358 -290q-1 -1 -7.5 -6l-10 -7.5t-9.5 -8t-9 -9.5t-5.5 -9.5t-2.5 -10.5q0 -21 52 -61z" />
    <glyph glyph-name="L" unicode="L" horiz-adv-x="543" 
d="M563 0h-417q-39 0 -57 15q-19 16 -19 49v636h54v-618q0 -18 8 -26q9 -8 30 -8h401v-48z" />
    <glyph glyph-name="M" unicode="M" horiz-adv-x="932" 
d="M70 0v642q0 29 18 47.5t48 18.5q28 0 44.5 -16.5t31.5 -52.5l237 -570q8 -22 17 -22t17 22l237 570q15 36 31.5 52.5t44.5 16.5q30 0 48 -18.5t18 -47.5v-642h-54v642q0 18 -14 18q-4 0 -10.5 -7t-8.5 -13l-238 -572q-16 -38 -31 -57t-40 -19t-40 19t-31 57l-238 572
q-2 6 -8.5 13t-10.5 7q-14 0 -14 -18v-642h-54z" />
    <glyph glyph-name="N" unicode="N" horiz-adv-x="732" 
d="M662 700v-630q0 -36 -16.5 -57t-47.5 -21q-23 0 -38 11.5t-32 39.5l-366 591q-10 17 -23 17q-2 0 -5 -1.5t-6.5 -6t-3.5 -12.5v-631h-54v637q0 24 8 40t21 22t21 7.5t16 1.5q26 0 40.5 -12t28.5 -35l368 -594q11 -18 22 -18q13 0 13 18v633h54z" />
    <glyph glyph-name="O" unicode="O" horiz-adv-x="778" 
d="M389 708q37 0 64.5 -2t64.5 -9t69 -23t58 -42q28 -28 46 -64.5t25.5 -78t9.5 -71t2 -68.5t-2 -68.5t-9.5 -71t-25.5 -78t-46 -64.5q-48 -48 -112 -62t-144 -14q-37 0 -64.5 2t-64.5 9t-69 23t-58 42q-28 28 -46 64.5t-25.5 78t-9.5 71t-2 68.5t2 68.5t9.5 71t25.5 78
t46 64.5q48 48 112 62t144 14zM108 350q0 -53 2.5 -87t16.5 -80t41 -76q28 -31 72 -47t72.5 -18t76.5 -2t76.5 2t72.5 18t72 47q27 30 41 76t16.5 80t2.5 87t-2.5 87t-16.5 80t-41 76q-28 31 -72 47t-72.5 18t-76.5 2t-76.5 -2t-72.5 -18t-72 -47q-27 -30 -41 -76t-16.5 -80
t-2.5 -87z" />
    <glyph glyph-name="P" unicode="P" 
d="M124 0h-54v617q0 46 19 64q20 19 67 19h289q91 0 133 -37q29 -25 41 -66.5t12 -111.5q0 -125 -58 -169q-38 -30 -94 -30h-355v-286zM124 334h324q71 0 98 32t27 133q0 89 -29 121q-28 32 -94 32h-286q-19 0 -28 -6.5t-10.5 -14t-1.5 -22.5v-275z" />
    <glyph glyph-name="Q" unicode="Q" horiz-adv-x="781" 
d="M735 48v-48h-345q-185 0 -257 68q-83 80 -83 282q0 39 2 68.5t9.5 71t25.5 78t46 64.5q48 48 112 62t144 14q38 0 65.5 -2t65 -9t69.5 -23t58 -42q81 -81 81 -282q0 -161 -44 -234q-25 -41 -67 -65v-3h118zM108 350q0 -181 60 -243q35 -37 90 -48t131 -11q48 0 81 3
t74 16.5t66 39.5q27 28 41 76t16.5 82t2.5 85q0 54 -2.5 87.5t-16.5 79t-41 76.5q-38 42 -90.5 54.5t-130.5 12.5t-130.5 -12.5t-90.5 -54.5q-27 -31 -41 -76.5t-16.5 -79t-2.5 -87.5z" />
    <glyph glyph-name="R" unicode="R" horiz-adv-x="701" 
d="M70 0v593q0 57 29 83q27 24 76 24h295q94 0 133 -60q31 -47 31 -150q0 -97 -31 -146q-39 -61 -125 -61h-155v-5l328 -278h-79l-309 264q-13 11 -16 15.5t-3 12.5v16q0 23 24 23h217q48 0 72 39q19 33 19 124q0 102 -33 133q-27 25 -83 25h-286q-24 0 -36 -11
q-14 -13 -14 -36v-605h-54z" />
    <glyph glyph-name="S" unicode="S" horiz-adv-x="646" 
d="M61 0v48h395q82 0 82 120q0 41 -17.5 69t-70.5 46l-279 96q-58 20 -86 52q-35 40 -35 113q0 82 47 121q41 35 111 35h355v-48h-361q-48 0 -73 -27q-21 -23 -21 -83q0 -20 2 -33t8.5 -29t21.5 -28t39 -21l272 -96q76 -27 102 -52q43 -41 43 -113q0 -80 -34 -124
q-35 -46 -112 -46h-389z" />
    <glyph glyph-name="T" unicode="T" horiz-adv-x="600" 
d="M327 0h-54v652h-293v48h640v-48h-293v-652z" />
    <glyph glyph-name="U" unicode="U" horiz-adv-x="676" 
d="M70 700h54v-463q0 -100 36 -142q46 -55 178 -55t178 55q36 42 36 142v463h54v-482q0 -99 -50 -155q-65 -71 -218 -71t-218 71q-50 56 -50 155v482z" />
    <glyph glyph-name="V" unicode="V" horiz-adv-x="608" 
d="M41 700l246 -639q6 -15 17 -15t17 15l246 639h61l-263 -662q-7 -17 -22.5 -31.5t-38.5 -14.5q-43 0 -61 46l-263 662h61z" />
    <glyph glyph-name="W" unicode="W" horiz-adv-x="900" 
d="M35 700l158 -634q4 -22 17 -22q5 0 11 5.5t8 12.5l150 578q18 68 71 68t71 -68l150 -578q2 -7 8 -12.5t11 -5.5q13 0 17 22l158 634h55l-166 -649q-16 -59 -66 -59q-22 0 -37.5 11t-21.5 23t-11 30l-152 575q-4 20 -16 20t-16 -20l-152 -575q-5 -18 -11 -30t-21.5 -23
t-37.5 -11q-50 0 -66 59l-166 649h55z" />
    <glyph glyph-name="X" unicode="X" horiz-adv-x="560" 
d="M580 0h-64l-236 316l-236 -316h-64l271 355l-263 345h64l228 -306l228 306h64l-263 -345z" />
    <glyph glyph-name="Y" unicode="Y" horiz-adv-x="594" 
d="M297 279l257 421h60l-290 -470v-230h-54v230l-290 470h60z" />
    <glyph glyph-name="Z" unicode="Z" horiz-adv-x="578" 
d="M554 0h-472q-41 0 -56.5 18t-15.5 38q0 27 24 53l465 502q11 11 11 26t-18 15h-458v48h471q27 0 45 -14.5t18 -39.5q0 -29 -24 -55l-467 -510q-9 -11 -9 -21q0 -12 11 -12h475v-48z" />
    <glyph glyph-name="bracketleft" unicode="[" horiz-adv-x="324" 
d="M120 658v-766h174v-46h-224v858h224v-46h-174z" />
    <glyph glyph-name="backslash" unicode="\" horiz-adv-x="468" 
d="M428 -163l-438 903h50l438 -903h-50z" />
    <glyph glyph-name="bracketright" unicode="]" horiz-adv-x="324" 
d="M204 658h-174v46h224v-858h-224v46h174v766z" />
    <glyph glyph-name="asciicircum" unicode="^" horiz-adv-x="452" 
d="M394 514l-147 129q-11 9 -21 9t-21 -9l-147 -129l-28 35l157 134q19 17 39 17t39 -17l157 -134z" />
    <glyph glyph-name="underscore" unicode="_" horiz-adv-x="592" 
d="M50 0v58h492v-58h-492z" />
    <glyph glyph-name="grave" unicode="`" horiz-adv-x="214" 
d="M61 699l123 -100l-31 -39l-123 100z" />
    <glyph glyph-name="a" unicode="a" horiz-adv-x="505" 
d="M70 530h260q59 0 93 -37q32 -34 32 -106v-317q0 -38 -18 -55q-16 -15 -60 -15h-204q-66 0 -96 24q-47 38 -47 140q0 88 44 125q34 28 99 28h230v79q0 38 -20 63q-20 24 -56 24h-257v47zM403 270h-242q-39 0 -58 -26q-17 -22 -17 -82q0 -66 21 -92q19 -23 52 -23h214
q16 0 23 6t7 18v199z" />
    <glyph glyph-name="b" unicode="b" horiz-adv-x="516" 
d="M50 700h52v-170h166q130 0 182 -87q36 -60 36 -185q0 -113 -35 -171q-52 -87 -180 -87h-114q-62 0 -82 16q-25 20 -25 67v617zM102 483v-395q0 -24 6 -32q8 -9 31 -9h121q110 0 148 70q22 40 22 126q0 115 -21 164q-34 76 -145 76h-162z" />
    <glyph glyph-name="c" unicode="c" horiz-adv-x="476" 
d="M446 0h-212q-100 0 -156 67q-29 35 -38.5 79.5t-9.5 111.5q0 70 11.5 122.5t48.5 90.5q59 59 165 59h179v-47h-185q-62 0 -101.5 -29.5t-51.5 -78.5q-10 -41 -10 -124t18 -125q35 -79 156 -79h186v-47z" />
    <glyph glyph-name="d" unicode="d" horiz-adv-x="513" 
d="M463 77q0 -40 -14 -58q-16 -19 -58 -19h-165q-128 0 -172 107q-24 58 -24 172t40 172q54 79 180 79h161v170h52v-623zM411 483h-173q-90 0 -126 -60q-26 -43 -26 -152q0 -100 15 -142q30 -82 137 -82h133q24 0 32 8q8 9 8 37v391z" />
    <glyph glyph-name="e" unicode="e" horiz-adv-x="517" 
d="M473 0h-260q-91 0 -140 65q-28 36 -35.5 81t-7.5 117q0 47 3 79t20 73.5t48 67.5q56 47 166 47q83 0 135 -30q85 -53 85 -168q0 -50 -22 -69q-18 -16 -56 -16h-323q-2 -69 9 -108q11 -38 40.5 -65t77.5 -27h260v-47zM86 294h323q22 0 22 35q0 66 -36 108q-18 21 -43.5 32
t-44 12.5t-49.5 1.5q-34 0 -55 -2.5t-48 -17.5t-44 -44q-23 -39 -25 -125z" />
    <glyph glyph-name="f" unicode="f" horiz-adv-x="265" 
d="M10 530h69q-2 85 42 129q49 49 154 47v-47q-79 0 -110 -27q-36 -32 -34 -102h143v-47h-143v-483h-52v483h-69v47z" />
    <glyph glyph-name="g" unicode="g" horiz-adv-x="541" 
d="M439 0h-205q-36 0 -59.5 3t-53 19.5t-49.5 46.5q-42 65 -42 209q0 70 12 116t47 82q31 32 67.5 43t90.5 11h132q55 0 81 -19q31 -23 31 -74v-376q0 -122 -43 -172q-51 -59 -168 -59h-212v47h212q82 0 119 33q36 32 40 90zM439 47v393q0 25 -15 35q-13 8 -32 8h-164
q-63 0 -98 -37q-44 -46 -44 -178q0 -137 40 -187q14 -17 36.5 -25t33.5 -8.5t35 -0.5h208z" />
    <glyph glyph-name="h" unicode="h" horiz-adv-x="515" 
d="M50 0v700h52v-170h194q82 0 123 -38q46 -44 46 -140v-352h-52v358q0 63 -26 93q-28 32 -86 32h-199v-483h-52z" />
    <glyph glyph-name="i" unicode="i" horiz-adv-x="156" 
d="M52 0v530h52v-530h-52zM106 626h-56v74h56v-74z" />
    <glyph glyph-name="j" unicode="j" horiz-adv-x="258" 
d="M-10 -178v47q84 -4 123 28q22 17 31.5 39.5t9.5 64.5v529h52v-539q0 -89 -60 -136q-56 -43 -156 -33zM208 626h-56v74h56v-74z" />
    <glyph glyph-name="k" unicode="k" horiz-adv-x="459" 
d="M102 0h-52v700h52v-700zM469 0h-72l-215 198q-41 38 -41 76q0 36 42 76l192 180h70l-230 -216q-18 -18 -18 -38q0 -24 28 -50z" />
    <glyph glyph-name="l" unicode="l" horiz-adv-x="152" 
d="M50 0v700h52v-700h-52z" />
    <glyph glyph-name="m" unicode="m" horiz-adv-x="816" 
d="M50 0v441q0 40 12 60q19 29 60 29h492q74 0 111 -33q41 -36 41 -120v-377h-52v381q0 52 -22 76q-24 26 -79 26h-179v-483h-52v483h-248q-18 0 -26 -9q-6 -7 -6 -28v-446h-52z" />
    <glyph glyph-name="n" unicode="n" horiz-adv-x="518" 
d="M50 0v461q0 34 12 49q16 20 52 20h190q84 0 123 -39q41 -41 41 -123v-368h-52v355q0 66 -23 95q-26 33 -86 33h-188q-11 0 -14 -4t-3 -16v-463h-52z" />
    <glyph glyph-name="o" unicode="o" horiz-adv-x="584" 
d="M30 268q0 145 66 210q59 58 196 58t196 -58q66 -65 66 -210q0 -148 -66 -214q-61 -60 -196 -60t-196 60q-66 66 -66 214zM86 263q0 -124 43 -171q47 -51 163 -51t163 51q43 47 43 171q0 130 -42 177q-45 49 -164 49t-164 -49q-42 -47 -42 -177z" />
    <glyph glyph-name="p" unicode="p" horiz-adv-x="512" 
d="M102 0v-170h-52v634q0 31 25 50q21 16 59 16h134q101 0 158 -61q25 -26 38 -63.5t15.5 -64.5t2.5 -68q0 -130 -42 -194q-30 -45 -74.5 -62t-113.5 -17h-150zM102 47h171q83 0 123 60q30 46 30 159q0 97 -19 140q-18 39 -53 58t-75 19h-153q-7 0 -16 -7q-8 -7 -8 -19v-410
z" />
    <glyph glyph-name="q" unicode="q" horiz-adv-x="517" 
d="M467 -170h-52v170h-200q-98 0 -145 70q-40 61 -40 189q0 149 54 214q47 57 140 57h168q42 0 62 -26q13 -18 13 -63v-611zM415 47v404q0 16 -11 25q-9 7 -28 7h-140q-51 0 -83.5 -17.5t-48.5 -61.5q-18 -47 -18 -140q0 -77 12 -124q24 -93 124 -93h193z" />
    <glyph glyph-name="r" unicode="r" horiz-adv-x="253" 
d="M50 0v348q0 94 47 139q45 43 130 43h36v-47h-32q-70 0 -102 -37q-27 -33 -27 -110v-336h-52z" />
    <glyph glyph-name="s" unicode="s" horiz-adv-x="504" 
d="M39 0v47h304q44 0 62 25q13 19 13 61q0 35 -20 55q-18 17 -125 42l-92 21q-89 21 -122 59q-29 33 -29 88q0 52 27 86q22 29 52 37.5t76 8.5h254v-47h-275q-41 0 -59 -18q-19 -19 -19 -63q0 -47 22 -69q20 -20 91 -36l96 -22q43 -10 60.5 -14.5t41.5 -14t39 -21.5
q38 -30 38 -92q0 -81 -46 -113q-29 -20 -83 -20h-306z" />
    <glyph glyph-name="t" unicode="t" horiz-adv-x="277" 
d="M287 0h-40q-34 0 -48.5 0.5t-39.5 8t-40 22.5q-23 22 -29.5 56.5t-6.5 90.5v305h-73v47h73v170h52v-170h146v-47h-146v-294v-13.5v-15t0.5 -14.5t1 -15.5l1.5 -14t2.5 -14.5t3.5 -12.5t5 -12t7 -9.5t9 -8q19 -13 94 -13h28v-47z" />
    <glyph glyph-name="u" unicode="u" horiz-adv-x="522" 
d="M472 84q0 -48 -25 -68q-20 -16 -80 -16h-144q-90 0 -129 36q-44 40 -44 124v370h52v-354q0 -67 21 -94q26 -35 105 -35h147q24 0 35 11q10 10 10 33v439h52v-446z" />
    <glyph glyph-name="v" unicode="v" horiz-adv-x="458" 
d="M43 530l171 -462q9 -22 15 -22t15 22l171 462h53l-184 -490q-17 -46 -55 -46t-55 46l-184 490h53z" />
    <glyph glyph-name="w" unicode="w" horiz-adv-x="686" 
d="M42 530l119 -468q5 -16 11 -16q5 0 10 15l113 431q12 44 48 44t48 -44l113 -431q5 -15 10 -15q6 0 11 16l119 468h52l-130 -492q-11 -44 -51 -44q-42 0 -54 45l-110 414q-3 18 -8 18t-8 -18l-110 -414q-12 -45 -54 -45q-40 0 -51 44l-130 492h52z" />
    <glyph glyph-name="x" unicode="x" horiz-adv-x="430" 
d="M440 0h-63l-162 233l-162 -233h-63l197 272l-188 258h61l155 -219l155 219h61l-187 -258z" />
    <glyph glyph-name="y" unicode="y" horiz-adv-x="497" 
d="M507 530l-317 -701h-56l80 174l-224 527h56l196 -465l209 465h56z" />
    <glyph glyph-name="z" unicode="z" horiz-adv-x="441" 
d="M85 0q-65 0 -65 45q0 27 26 55l306 359l4 4t4.5 5.5t1.5 5.5q0 9 -12 9h-315v47h339q20 0 32 -13t12 -30q0 -24 -15 -43l-319 -378q-8 -11 -8 -14q0 -5 9 -5h336v-47h-336z" />
    <glyph glyph-name="braceleft" unicode="{" horiz-adv-x="296" 
d="M113 288v-8q39 -14 39 -82v-138q0 -93 45 -129q29 -24 69 -21v-46q-46 -2 -85 23q-67 42 -76 132q-3 33 -3 67v127q0 24 -15 37t-37 15v38q22 2 37 15t15 37v127q0 34 3 67q9 90 76 132q39 25 85 23v-46q-40 3 -69 -21q-45 -36 -45 -129v-138q0 -68 -39 -82z" />
    <glyph glyph-name="bar" unicode="|" horiz-adv-x="150" 
d="M50 -163v903h50v-903h-50z" />
    <glyph glyph-name="braceright" unicode="}" horiz-adv-x="296" 
d="M183 280v8q-39 14 -39 82v138q0 93 -45 129q-29 24 -69 21v46q46 2 85 -23q67 -42 76 -132q3 -33 3 -67v-127q0 -24 15 -37t37 -15v-38q-22 -2 -37 -15t-15 -37v-127q0 -34 -3 -67q-9 -90 -76 -132q-39 -25 -85 -23v46q40 -3 69 21q45 36 45 129v138q0 68 39 82z" />
    <glyph glyph-name="asciitilde" unicode="~" horiz-adv-x="533" 
d="M65 285l-35 32q25 36 59 59q37 25 82 25q40 0 74 -20l54 -32q40 -22 68 -22q32 0 58 21q25 19 43 50l35 -31q-25 -38 -58 -62q-38 -26 -83 -26q-36 0 -74 21l-45 26q-49 27 -75 27q-24 0 -49 -14q-30 -17 -54 -54z" />
    <glyph glyph-name="afii10051" horiz-adv-x="772" 
d="M160 0v652h-180v48h531v-48h-297v-274h359q77 0 114 -45q35 -42 35 -139q0 -113 -33 -155q-31 -39 -98 -39h-173v48h144q59 0 81 26q21 25 21 109q0 93 -20 118q-22 29 -70 29h-360v-330h-54z" />
    <glyph glyph-name="afii10052" horiz-adv-x="501" 
d="M54 0h-54v621q0 37 20 57q22 22 58 22h423v-48h-391q-42 0 -50 -11q-6 -8 -6 -36v-605zM298 879l31 -39l-123 -100l-31 39z" />
    <glyph glyph-name="quotesinglbase" horiz-adv-x="200" 
d="M45 -86l-45 30l105 156l45 -30z" />
    <glyph glyph-name="afii10100" horiz-adv-x="398" 
d="M52 0h-52v454q0 38 8 51q14 25 52 25h338v-47h-318q-16 0 -22 -8t-6 -30v-445zM236 699l31 -39l-123 -100l-31 39z" />
    <glyph glyph-name="quotedblbase" horiz-adv-x="345" 
d="M0 -56l105 156l45 -30l-105 -156zM145 -56l105 156l45 -30l-105 -156z" />
    <glyph glyph-name="ellipsis" unicode="&#x85;" horiz-adv-x="480" 
d="M130 0h-60v87h60v-87zM270 0h-60v87h60v-87zM410 0h-60v87h60v-87z" />
    <glyph glyph-name="dagger" horiz-adv-x="446" 
d="M250 -170h-54v612h-166v48h166v210h54v-210h166v-48h-166v-612z" />
    <glyph glyph-name="daggerdbl" horiz-adv-x="446" 
d="M196 -170v196h-166v48h166v368h-166v48h166v210h54v-210h166v-48h-166v-368h166v-48h-166v-196h-54z" />
    <glyph glyph-name="accent" horiz-adv-x="2" 
d="M-209 699l31 -39l-123 -100l-31 39z" />
    <glyph glyph-name="perthousand" horiz-adv-x="1000" 
d="M182 706q63 0 94 -31q38 -38 38 -136t-38 -136q-31 -31 -94 -31t-94 31q-38 38 -38 136t38 136q31 31 94 31zM100 539q0 -73 20 -100q20 -26 62 -26t62 26q20 27 20 100t-20 100q-20 26 -62 26t-62 -26q-20 -27 -20 -100zM160 0l318 700h47l-318 -700h-47zM499 328
q63 0 94 -31q38 -38 38 -136t-38 -136q-31 -31 -94 -31t-94 31q-38 38 -38 136t38 136q31 31 94 31zM417 161q0 -72 22 -100q20 -26 60 -26q41 0 60 26q22 28 22 100t-22 100q-19 26 -60 26q-40 0 -60 -26q-22 -28 -22 -100zM818 328q63 0 94 -31q38 -38 38 -136t-38 -136
q-31 -31 -94 -31t-94 31q-38 38 -38 136t38 136q31 31 94 31zM736 161q0 -72 22 -100q20 -26 60 -26q41 0 60 26q22 28 22 100t-22 100q-19 26 -60 26q-40 0 -60 -26q-22 -28 -22 -100z" />
    <glyph glyph-name="afii10058" horiz-adv-x="1093" 
d="M-20 0l417 656q32 52 75 52q27 0 45.5 -19t18.5 -53v-255h353q93 0 128 -52q26 -38 26 -137q0 -95 -32 -136q-43 -56 -136 -56h-322q-34 0 -54 23q-17 20 -17 61v551q0 18 -17 18q-11 0 -18 -11l-406 -642h-61zM536 333v-241q0 -23 6 -32q8 -12 39 -12h291q60 0 88 31
q25 27 25 111q0 102 -28 126q-19 17 -61 17h-360z" />
    <glyph glyph-name="guilsinglleft" horiz-adv-x="289" 
d="M239 488l-124 -179q-11 -18 -11 -28t11 -28l124 -179l-43 -29l-131 192q-15 23 -15 44t15 44l131 192z" />
    <glyph glyph-name="afii10059" horiz-adv-x="1189" 
d="M632 381h353q93 0 128 -52q26 -38 26 -137q0 -95 -32 -136q-43 -56 -136 -56h-322q-34 0 -54 23q-17 20 -17 61v249h-454v-333h-54v700h54v-319h454v319h54v-319zM632 333v-241q0 -23 6 -32q8 -12 39 -12h291q60 0 88 31q25 27 25 111q0 102 -28 126q-19 17 -61 17h-360z
" />
    <glyph glyph-name="afii10061" horiz-adv-x="626" 
d="M70 0v700h54v-700h-54zM656 0h-81l-351 271q-61 47 -61 89q0 37 50 76l328 264h78l-358 -290q-1 -1 -7.5 -6l-10 -7.5t-9.5 -8t-9 -9.5t-5.5 -9.5t-2.5 -10.5q0 -21 52 -61zM384 879l31 -39l-123 -100l-31 39z" />
    <glyph glyph-name="afii10060" horiz-adv-x="752" 
d="M160 0v652h-180v48h531v-48h-297v-274h346q64 0 98 -24q44 -32 44 -107v-247h-54v256q0 37 -24 57q-20 17 -58 17h-352v-330h-54z" />
    <glyph glyph-name="afii10145" horiz-adv-x="694" 
d="M320 -169v169h-185q-38 0 -52 13q-13 13 -13 41v646h54v-619q0 -16 4 -24q6 -9 24 -9h390q18 0 24 9q4 8 4 24v619h54v-646q0 -28 -13 -41q-14 -13 -52 -13h-185v-169h-54z" />
    <glyph glyph-name="afii10099" horiz-adv-x="515" 
d="M70 0v601h-80v47h80v52h52v-52h154v-47h-154v-71h194q82 0 123 -38q46 -44 46 -140v-211q0 -48 -14 -106q-14 -54 -50 -112q-32 -50 -72 -93h-67q56 60 95 121q31 49 43 99q13 56 13 105v217q0 48 -26 79q-29 32 -86 32h-199v-483h-52z" />
    <glyph glyph-name="quoteleft" horiz-adv-x="200" 
d="M150 544l-45 -30l-105 156l45 30z" />
    <glyph glyph-name="quoteright" horiz-adv-x="210" 
d="M75 514l-45 30l105 156l45 -30z" />
    <glyph glyph-name="quotedblleft" horiz-adv-x="355" 
d="M75 700l105 -156l-45 -30l-105 156zM220 700l105 -156l-45 -30l-105 156z" />
    <glyph glyph-name="quotedblright" horiz-adv-x="355" 
d="M30 544l105 156l45 -30l-105 -156zM175 544l105 156l45 -30l-105 -156z" />
    <glyph glyph-name="bullet" horiz-adv-x="540" 
d="M70 348q0 82 59 141t141 59t141 -59t59 -141t-59 -141t-141 -59t-141 59t-59 141z" />
    <glyph glyph-name="endash" horiz-adv-x="592" 
d="M50 242v58h492v-58h-492z" />
    <glyph glyph-name="emdash" horiz-adv-x="1140" 
d="M70 242v58h1000v-58h-1000z" />
    <glyph glyph-name="Accent" horiz-adv-x="2" 
d="M-297 879l31 -39l-123 -100l-31 39z" />
    <glyph glyph-name="trademark" horiz-adv-x="900" 
d="M207 300h-47v357h-160v44h367v-44h-160v-357zM784 651l-112 -312q-15 -44 -49 -44t-49 44l-112 312q-5 12 -11 12q-8 0 -8 -11v-352h-47v368q0 38 40 38q49 0 63 -40l114 -316q7 -13 10 -13t10 13l114 316q14 40 63 40q40 0 40 -38v-368h-47v352q0 11 -8 11q-6 0 -11 -12
z" />
    <glyph glyph-name="afii10106" horiz-adv-x="825" 
d="M-10 0l287 485q30 51 76 51q32 0 51 -16t19 -43v-174h245q58 0 90 -31q37 -36 37 -115q0 -94 -39 -131q-13 -12 -31 -18t-30.5 -7t-36.5 -1h-230q-32 0 -44 12q-13 13 -13 49v409q0 8 -6 14t-13 6q-13 0 -22 -16l-283 -474h-57zM423 256v-178q0 -20 3 -24q4 -7 22 -7h220
q37 0 54 25q17 24 17 84q0 56 -18 77q-18 23 -53 23h-245z" />
    <glyph glyph-name="guilsinglright" horiz-adv-x="289" 
d="M50 488l43 29l131 -192q15 -22 15 -44q0 -21 -15 -44l-131 -192l-43 29l124 179q11 18 11 28t-11 28z" />
    <glyph glyph-name="afii10107" horiz-adv-x="858" 
d="M50 530h52v-230h308v230h52v-230h239q58 0 90 -31q37 -36 37 -115q0 -91 -39 -128q-13 -12 -31 -18t-30.5 -7t-36.5 -1h-224q-32 0 -44 12q-13 13 -13 49v192h-308v-253h-52v530zM462 253v-175q0 -18 3 -24q4 -7 22 -7h214q37 0 54 25t17 83q0 52 -18 75q-19 23 -53 23
h-239z" />
    <glyph glyph-name="afii10109" horiz-adv-x="448" 
d="M102 0h-52v530h52v-530zM458 0h-74l-223 210q-34 31 -34 63q0 30 41 69l202 188h71l-236 -223q-22 -22 -22 -34q0 -13 16 -29zM270 699l31 -39l-123 -100l-31 39z" />
    <glyph glyph-name="afii10108" horiz-adv-x="535" 
d="M70 0v601h-80v47h80v52h52v-52h154v-47h-154v-71h194q82 0 123 -38q46 -44 46 -140v-352h-52v358q0 63 -26 93q-28 32 -86 32h-199v-483h-52z" />
    <glyph glyph-name="afii10193" horiz-adv-x="522" 
d="M233 -176v176h-114q-40 0 -56 19q-13 16 -13 51v460h52v-458q0 -17 4 -21t16 -4h278q12 0 16 4t4 21v458h52v-460q0 -35 -13 -51q-16 -19 -56 -19h-114v-176h-56z" />
    <glyph glyph-name="afii10062" unicode="&#xa1;" horiz-adv-x="610" 
d="M282 0h-60l63 119l-315 581h60l283 -527l267 527h60zM160 836h58q4 -24 22 -40q20 -18 65 -18t65 18q18 16 22 40h58q-10 -52 -51 -82q-33 -24 -94 -24t-94 24q-41 30 -51 82z" />
    <glyph glyph-name="afii10110" unicode="&#xa2;" horiz-adv-x="516" 
d="M516 528l-315 -698h-56l79 173l-224 527h56l196 -465l208 463h56zM258 607q43 0 65 20q17 16 26 43h60q-16 -51 -49 -79q-37 -32 -102 -32t-102 32q-33 28 -49 79h60q9 -27 26 -43q22 -20 65 -20z" />
    <glyph glyph-name="afii10057" unicode="&#xa3;" horiz-adv-x="392" 
d="M-20 0v49h128q71 0 114 41q46 45 46 145v465h54v-465q0 -114 -54 -171q-62 -64 -149 -64h-139z" />
    <glyph glyph-name="currency" unicode="&#xa4;" horiz-adv-x="572" 
d="M86 310q0 68 42 122l-58 58l36 36l57 -58q56 42 123 42q72 0 122 -43l58 59l36 -36l-58 -58q42 -54 42 -122t-42 -122l58 -58l-36 -36l-58 59q-50 -43 -122 -43t-122 43l-58 -59l-36 37l58 57q-42 54 -42 122zM138 310q0 -61 43.5 -104.5t104.5 -43.5t104.5 43.5
t43.5 104.5t-43.5 104.5t-104.5 43.5t-104.5 -43.5t-43.5 -104.5z" />
    <glyph glyph-name="afii10050" unicode="&#xa5;" horiz-adv-x="547" 
d="M70 0v623q0 40 13 56q17 21 59 21h342q18 0 24 6q5 7 5 25v94h54v-120q0 -31 -13 -42q-11 -10 -45 -10h-356q-19 0 -24 -9q-5 -6 -5 -36v-608h-54z" />
    <glyph glyph-name="brokenbar" unicode="&#xa6;" horiz-adv-x="150" 
d="M50 440v300h50v-300h-50zM50 -63v300h50v-300h-50z" />
    <glyph glyph-name="section" unicode="&#xa7;" horiz-adv-x="484" 
d="M98 -174v48h153q7 0 14 0.5t21 4.5t23.5 10.5t17 21t7.5 33.5q0 41 -33 69l-202 171q-49 42 -49 109q0 64 46 101q45 37 115 37l-69 59q-51 44 -51 98q0 49 33 80q34 32 90 32h173v-48h-176q-29 0 -46.5 -18t-17.5 -46q0 -38 27 -61l204 -173q56 -47 56 -119
q0 -71 -60 -104q-43 -25 -110 -23l64 -54q19 -16 30 -27.5t21.5 -34t10.5 -49.5q0 -63 -51 -96q-33 -21 -100 -21h-141zM219 146q54 0 88 10q71 19 71 94q0 40 -30 66l-84 71q-72 0 -106 -15q-52 -23 -52 -83q0 -46 31 -73z" />
    <glyph glyph-name="afii10023" unicode="&#xa8;" horiz-adv-x="620" 
d="M580 0h-415q-52 0 -73 21q-22 22 -22 76v510q0 43 20 67q22 26 73 26h413v-48h-405q-24 0 -36 -10q-11 -9 -11 -35v-225h442v-48h-442v-249q0 -19 10 -28t45 -9h401v-48zM460 787h-54v78h54v-78zM261 787h-54v78h54v-78z" />
    <glyph glyph-name="copyright" unicode="&#xa9;" horiz-adv-x="834" 
d="M417 708q165 0 242 -49q125 -79 125 -308q0 -106 -25.5 -183.5t-99.5 -125.5q-49 -32 -105.5 -41t-136.5 -9t-136.5 9t-105.5 41q-74 48 -99.5 125.5t-25.5 183.5q0 229 125 308q77 49 242 49zM108 351q0 -195 93 -264q65 -47 216 -47t216 47q93 69 93 264q0 194 -93 261
q-64 48 -216 48t-216 -48q-93 -67 -93 -261zM569 149h-199q-83 0 -126 60q-34 47 -34 140q0 97 35 144q45 59 136 59h176v-48h-176q-62 0 -92 -52q-21 -38 -21 -116q0 -58 18 -93q25 -46 87 -46h196v-48z" />
    <glyph glyph-name="afii10053" unicode="&#xaa;" horiz-adv-x="656" 
d="M606 0h-264q-124 0 -199 63q-53 44 -73 113.5t-20 179.5q0 89 15.5 156t66.5 116q75 72 210 72h254v-48h-278q-99 0 -158 -73q-56 -69 -52 -198h474v-48h-474q-2 -76 12.5 -134t59.5 -99q58 -52 152 -52h274v-48z" />
    <glyph glyph-name="guillemotleft" unicode="&#xab;" horiz-adv-x="398" 
d="M239 488l-124 -179q-11 -18 -11 -28t11 -28l124 -179l-43 -29l-131 192q-15 23 -15 44t15 44l131 192zM348 429l-81 -116q-16 -21 -16 -32q0 -9 16 -32l81 -116l-42 -29l-91 133q-18 26 -18 44t18 44l91 133z" />
    <glyph glyph-name="logicalnot" unicode="&#xac;" horiz-adv-x="566" 
d="M496 88h-50v198h-376v48h426v-246z" />
    <glyph glyph-name="hyphen" unicode="&#xad;" horiz-adv-x="400" 
d="M50 242v58h300v-58h-300z" />
    <glyph glyph-name="registered" unicode="&#xae;" horiz-adv-x="546" 
d="M50 495q0 122 60 173q9 8 20 14t20 10t22 7t20.5 4.5t22.5 2t20 0.5h20.5h17.5h17.5h20.5t20 -0.5t22.5 -2t20.5 -4.5t22 -7t20 -10t20 -14q60 -51 60 -173t-60 -173q-9 -8 -20 -14t-20 -10t-22 -7t-20.5 -4.5t-22.5 -2t-20 -0.5h-20.5h-17.5h-17.5h-20.5t-20 0.5
t-22.5 2t-20.5 4.5t-22 7t-20 10t-20 14q-60 51 -60 173zM90 495q0 -86 30 -127q6 -8 13 -14.5t13 -11.5t15 -9l15 -6.5t16.5 -4t16 -2.5t17 -1.5t15.5 -0.5h16.5h15.5h15.5h16.5t15.5 0.5t17 1.5t16 2.5t16.5 4l15 6.5t15 9t13 11.5t13 14.5q30 41 30 127t-30 127
q-6 8 -13 14.5t-13 11.5t-15 9l-15 6.5t-16.5 4t-16 2.5t-17 1.5t-15.5 0.5h-16.5h-15.5h-15.5h-16.5t-15.5 -0.5t-17 -1.5t-16 -2.5t-16.5 -4l-15 -6.5t-15 -9t-13 -11.5t-13 -14.5q-30 -41 -30 -127zM208 373h-40v209q0 17 7 24q10 10 36 10h99q34 0 47 -10q23 -17 23 -68
q0 -73 -53 -73h-25l91 -92h-54l-81 82q-12 12 -12 25q0 18 21 18h35q23 0 28 4q8 6 8 16v35q0 11 -6 18q-8 10 -26 10h-81q-10 0 -14 -2q-3 -2 -3 -16v-190z" />
    <glyph glyph-name="afii10056" unicode="&#xaf;" horiz-adv-x="220" 
d="M137 0h-54v700h54v-700zM190 762h-54v79h54v-79zM84 762h-54v79h54v-79z" />
    <glyph glyph-name="degree" unicode="&#xb0;" horiz-adv-x="320" 
d="M50 674q0 45 32.5 77.5t77.5 32.5t77.5 -32.5t32.5 -77.5t-32.5 -77.5t-77.5 -32.5t-77.5 32.5t-32.5 77.5zM90 674q0 -29 20.5 -49.5t49.5 -20.5t49.5 20.5t20.5 49.5t-20.5 49.5t-49.5 20.5t-49.5 -20.5t-20.5 -49.5z" />
    <glyph glyph-name="plusminus" unicode="&#xb1;" horiz-adv-x="566" 
d="M310 140h-54v186h-186v48h186v186h54v-186h186v-48h-186v-186zM496 50h-426v48h426v-48z" />
    <glyph glyph-name="afii10055" unicode="&#xb2;" horiz-adv-x="194" 
d="M124 0h-54v700h54v-700z" />
    <glyph glyph-name="afii10103" unicode="&#xb3;" horiz-adv-x="156" 
d="M52 0v530h52v-530h-52zM106 626h-56v74h56v-74z" />
    <glyph glyph-name="afii10098" unicode="&#xb4;" horiz-adv-x="404" 
d="M50 0v465q0 34 14 48q16 17 47 17h234q16 0 22 7q5 5 5 17v103h52v-116q0 -30 -14 -44q-15 -14 -47 -14h-236q-16 0 -21 -8q-4 -7 -4 -23v-452h-52z" />
    <glyph glyph-name="mu" unicode="&#xb5;" horiz-adv-x="522" 
d="M50 -178v708h52v-350q0 -51 41 -94q43 -45 115 -45q66 0 113 43q49 44 49 93v353h52v-530h-52v72q-58 -78 -163 -78q-99 0 -155 70v-242h-52z" />
    <glyph glyph-name="paragraph" unicode="&#xb6;" horiz-adv-x="540" 
d="M456 -170h-52v823h-52v-823h-52v460h-96q-77 0 -120 62q-34 49 -34 139q0 121 63 173q43 36 111 36h286v-47h-54v-823zM300 336v317h-81q-55 0 -85 -38q-30 -39 -30 -120q0 -73 20 -108q29 -51 103 -51h73z" />
    <glyph glyph-name="periodcentered" unicode="&#xb7;" horiz-adv-x="160" 
d="M110 250h-60v87h60v-87z" />
    <glyph glyph-name="afii10071" unicode="&#xb8;" horiz-adv-x="517" 
d="M473 0h-260q-91 0 -140 65q-28 36 -35.5 81t-7.5 117q0 47 3 79t20 73.5t48 67.5q56 47 166 47q83 0 135 -30q85 -53 85 -168q0 -50 -22 -69q-18 -16 -56 -16h-323q-2 -69 9 -108q11 -38 40.5 -65t77.5 -27h260v-47zM86 294h323q22 0 22 35q0 66 -36 108q-18 21 -43.5 32
t-44 12.5t-49.5 1.5q-34 0 -55 -2.5t-48 -17.5t-44 -44q-23 -39 -25 -125zM316 618v82h56v-82h-56zM194 618h-56v82h56v-82z" />
    <glyph glyph-name="afii61352" unicode="&#xb9;" horiz-adv-x="944" 
d="M633 700v-630q0 -36 -16 -57t-45 -21q-21 0 -36.5 10.5t-32.5 40.5l-347 591q-8 17 -20 17t-12 -20v-631h-54v637q0 32 16 51.5t48 19.5q39 0 67 -47l349 -594q1 -1 3.5 -6t4 -6.5t4.5 -3.5t7 -2t6.5 1t3 3t1 3.5t0 5t-0.5 5.5v633h54zM684 333v40h210v-40h-210zM684 522
v76q0 59 25 83q26 25 80 25t80 -25q25 -24 25 -83v-76q0 -59 -25 -83q-26 -25 -80 -25t-80 25q-25 24 -25 83zM852 522v78q0 37 -13 52q-14 16 -50 16t-50 -16q-13 -15 -13 -52v-78q0 -39 13 -54q14 -16 50 -16t50 16q13 15 13 54z" />
    <glyph glyph-name="afii10101" unicode="&#xba;" horiz-adv-x="491" 
d="M461 0h-200q-37 0 -62 2.5t-61.5 18.5t-59.5 45q-48 61 -48 211q0 135 52 195q50 58 149 58h223v-47h-222q-89 0 -123 -61q-25 -44 -25 -119h363v-47h-366q0 -79 20 -130q31 -79 132 -79h228v-47z" />
    <glyph glyph-name="guillemotright" unicode="&#xbb;" horiz-adv-x="398" 
d="M50 429l42 29l91 -133q18 -26 18 -44t-18 -44l-91 -133l-42 29l81 116q16 23 16 32q0 11 -16 32zM159 488l43 29l131 -192q15 -22 15 -44q0 -21 -15 -44l-131 -192l-43 29l124 179q11 18 11 28t-11 28z" />
    <glyph glyph-name="afii10105" unicode="&#xbc;" horiz-adv-x="258" 
d="M-10 -178v48q85 -4 123 27q21 17 31 39.5t10 64.5v529h52v-539q0 -89 -60 -136q-56 -43 -156 -33zM208 626h-56v74h56v-74z" />
    <glyph glyph-name="afii10054" unicode="&#xbd;" horiz-adv-x="646" 
d="M61 0v48h395q82 0 82 120q0 41 -17.5 69t-70.5 46l-279 96q-58 20 -86 52q-35 40 -35 113q0 82 47 121q41 35 111 35h355v-48h-361q-48 0 -73 -27q-21 -23 -21 -83q0 -20 2 -33t8.5 -29t21.5 -28t39 -21l272 -96q76 -27 102 -52q43 -41 43 -113q0 -80 -34 -124
q-35 -46 -112 -46h-389z" />
    <glyph glyph-name="afii10102" unicode="&#xbe;" horiz-adv-x="504" 
d="M39 0v47h304q44 0 62 25q13 19 13 61q0 35 -20 55q-18 17 -125 42l-92 21q-89 21 -122 59q-29 33 -29 88q0 52 27 86q22 29 52 37.5t76 8.5h254v-47h-275q-41 0 -59 -18q-19 -19 -19 -63q0 -47 22 -69q20 -20 91 -36l96 -22q43 -10 60.5 -14.5t41.5 -14t39 -21.5
q38 -30 38 -92q0 -81 -46 -113q-29 -20 -83 -20h-306z" />
    <glyph glyph-name="afii10104" unicode="&#xbf;" horiz-adv-x="156" 
d="M52 0v530h52v-530h-52zM156 590h-52v79h52v-79zM52 590h-52v79h52v-79z" />
    <glyph glyph-name="afii10017" unicode="&#xc0;" horiz-adv-x="672" 
d="M-10 0l268 634q15 35 32.5 54.5t45.5 19.5t45.5 -19.5t32.5 -54.5l268 -634h-58l-85 204h-406l-85 -204h-58zM307 618l-153 -366h364l-153 366q-17 40 -29 40t-29 -40z" />
    <glyph glyph-name="afii10018" unicode="&#xc1;" 
d="M598 700v-48h-423q-30 0 -39 -8q-12 -10 -12 -36v-232h356q82 0 119 -49q32 -44 32 -140q0 -100 -39 -145q-36 -42 -110 -42h-330q-50 0 -69 26q-13 17 -13 62v519q0 48 20 70q21 23 63 23h445zM124 328v-222q0 -33 6 -43q10 -15 55 -15h277q57 0 82 26q29 30 29 117
q0 81 -29 112q-24 25 -82 25h-338z" />
    <glyph glyph-name="afii10019" unicode="&#xc2;" 
d="M70 90v518q0 43 20 68q21 24 62 24h323q68 0 105 -39q44 -45 44 -150q0 -79 -30 -118q-25 -32 -64 -37v-4q45 -5 72 -38q14 -17 21 -40.5t7.5 -38.5t0.5 -46q0 -35 -1 -52.5t-11 -45.5t-30 -50q-23 -25 -45.5 -33t-54.5 -8h-309h-11h-13t-13 0.5t-14.5 2t-12.5 4
t-13.5 6.5t-11.5 10q-21 22 -21 67zM124 612v-236h328q68 0 92 31q22 28 22 111q0 81 -32 113q-22 21 -67 21h-303q-23 0 -30 -8q-10 -10 -10 -32zM124 328v-226q0 -34 7 -43q9 -11 46 -11h279q71 0 95 33q22 29 22 107q0 76 -18 103q-10 15 -30.5 26t-41.5 11h-359z" />
    <glyph glyph-name="afii10020" unicode="&#xc3;" horiz-adv-x="551" 
d="M124 0h-54v621q0 37 20 57q22 22 58 22h423v-48h-391q-42 0 -50 -11q-6 -8 -6 -36v-605z" />
    <glyph glyph-name="afii10021" unicode="&#xc4;" horiz-adv-x="752" 
d="M30 48l274 590q31 70 72 70q24 0 40 -18t32 -52l274 -590h50v-48h-792v48h50zM355 626l-265 -578h572l-265 578q-10 24 -21 24t-21 -24z" />
    <glyph glyph-name="afii10022" unicode="&#xc5;" horiz-adv-x="620" 
d="M580 0h-415q-52 0 -73 21q-22 22 -22 76v510q0 43 20 67q22 26 73 26h413v-48h-405q-24 0 -36 -10q-11 -9 -11 -35v-225h442v-48h-442v-249q0 -19 10 -28q12 -9 45 -9h401v-48z" />
    <glyph glyph-name="afii10024" unicode="&#xc6;" horiz-adv-x="958" 
d="M978 0h-81l-294 271q-58 54 -58 88q0 30 47 77l271 264h78l-302 -290q-40 -39 -40 -53q0 -15 48 -59zM452 0v700h54v-700h-54zM-20 0l331 298q48 44 48 59q0 14 -40 53l-302 290h78l271 -264q47 -47 47 -77q0 -36 -58 -88l-294 -271h-81z" />
    <glyph glyph-name="afii10025" unicode="&#xc7;" horiz-adv-x="613" 
d="M40 0v48h327q64 0 94 18q28 17 36 46t8 72q0 87 -29 117q-28 28 -88 28h-334v48h308q79 0 109 38q22 28 22 101q0 84 -28 113q-23 23 -60 23h-361v48h351q78 0 115 -39q41 -43 41 -147q0 -88 -38 -126q-22 -22 -55 -31v-4q60 -7 85 -53q20 -36 20 -115q0 -121 -66 -159
q-45 -26 -117 -26h-340z" />
    <glyph glyph-name="afii10026" unicode="&#xc8;" horiz-adv-x="728" 
d="M658 0h-54v631q0 20 -10 20q-8 0 -25 -29l-361 -569q-26 -40 -41 -50q-16 -11 -38 -11q-59 0 -59 81v627h54v-621v-6v-6v-5.5t1 -5.5t2 -3.5t3.5 -2.5t5.5 -1q4 0 7 3t7.5 9.5t4.5 7.5l355 565l8 12.5l7.5 12t7 10.5t7.5 10t7.5 8t8.5 8l8.5 5.5t10 4.5t10.5 2t13 1
q60 0 60 -87v-621z" />
    <glyph glyph-name="afii10027" unicode="&#xc9;" horiz-adv-x="728" 
d="M658 0h-54v631q0 20 -10 20q-8 0 -25 -29l-361 -569q-26 -40 -41 -50q-16 -11 -38 -11q-59 0 -59 81v627h54v-621v-6v-6v-5.5t1 -5.5t2 -3.5t3.5 -2.5t5.5 -1q4 0 7 3t7.5 9.5t4.5 7.5l355 565l8 12.5l7.5 12t7 10.5t7.5 10t7.5 8t8.5 8l8.5 5.5t10 4.5t10.5 2t13 1
q60 0 60 -87v-621zM219 835h58q4 -24 22 -40q20 -18 65 -18t65 18q18 16 22 40h58q-10 -52 -51 -82q-33 -24 -94 -24t-94 24q-41 30 -51 82z" />
    <glyph glyph-name="afii10028" unicode="&#xca;" horiz-adv-x="626" 
d="M70 0v700h54v-700h-54zM656 0h-81l-351 271q-61 47 -61 89q0 37 50 76l328 264h78l-358 -290q-1 -1 -7.5 -6l-10 -7.5t-9.5 -8t-9 -9.5t-5.5 -9.5t-2.5 -10.5q0 -21 52 -61z" />
    <glyph glyph-name="afii10029" unicode="&#xcb;" horiz-adv-x="626" 
d="M-30 0l272 647q15 37 31 49t40 12t40 -12t31 -49l272 -647h-58l-264 637q0 1 -2.5 7t-4 8t-5.5 5t-9 3q-4 0 -7.5 -1.5t-5.5 -4.5t-3 -5t-2.5 -6.5t-2.5 -5.5l-264 -637h-58z" />
    <glyph glyph-name="afii10030" unicode="&#xcc;" horiz-adv-x="932" 
d="M70 0v642q0 29 18 47.5t48 18.5q28 0 44.5 -16.5t31.5 -52.5l237 -570q8 -22 17 -22t17 22l237 570q15 36 31.5 52.5t44.5 16.5q30 0 48 -18.5t18 -47.5v-642h-54v642q0 18 -14 18q-4 0 -10.5 -7t-8.5 -13l-238 -572q-16 -38 -31 -57t-40 -19t-40 19t-31 57l-238 572
q-2 6 -8.5 13t-10.5 7q-14 0 -14 -18v-642h-54z" />
    <glyph glyph-name="afii10031" unicode="&#xcd;" horiz-adv-x="702" 
d="M632 700v-700h-54v332h-454v-332h-54v700h54v-320h454v320h54z" />
    <glyph glyph-name="afii10032" unicode="&#xce;" horiz-adv-x="778" 
d="M389 708q37 0 64.5 -2t64.5 -9t69 -23t58 -42q28 -28 46 -64.5t25.5 -78t9.5 -71t2 -68.5t-2 -68.5t-9.5 -71t-25.5 -78t-46 -64.5q-48 -48 -112 -62t-144 -14q-37 0 -64.5 2t-64.5 9t-69 23t-58 42q-28 28 -46 64.5t-25.5 78t-9.5 71t-2 68.5t2 68.5t9.5 71t25.5 78
t46 64.5q48 48 112 62t144 14zM108 350q0 -53 2.5 -87t16.5 -80t41 -76q28 -31 72 -47t72.5 -18t76.5 -2t76.5 2t72.5 18t72 47q27 30 41 76t16.5 80t2.5 87t-2.5 87t-16.5 80t-41 76q-28 31 -72 47t-72.5 18t-76.5 2t-76.5 -2t-72.5 -18t-72 -47q-27 -30 -41 -76t-16.5 -80
t-2.5 -87z" />
    <glyph glyph-name="afii10033" unicode="&#xcf;" horiz-adv-x="694" 
d="M533 652h-372q-21 0 -29 -8t-8 -30v-614h-54v609q0 48 21 70q20 21 59 21h394q39 0 59 -21q21 -22 21 -70v-609h-54v614q0 22 -8 30t-29 8z" />
    <glyph glyph-name="afii10034" unicode="&#xd0;" 
d="M124 0h-54v617q0 46 19 64q20 19 67 19h289q91 0 133 -37q29 -25 41 -66.5t12 -111.5q0 -125 -58 -169q-38 -30 -94 -30h-355v-286zM124 334h324q71 0 98 32t27 133q0 89 -29 121q-28 32 -94 32h-286q-19 0 -28 -6.5t-10.5 -14t-1.5 -22.5v-275z" />
    <glyph glyph-name="afii10035" unicode="&#xd1;" horiz-adv-x="639" 
d="M619 0h-282q-130 0 -209 79q-43 43 -60.5 105.5t-17.5 155.5q0 90 14.5 158t60.5 117q82 85 215 85h268v-48h-245q-140 0 -203 -81q-52 -67 -52 -232q0 -142 46 -206q61 -85 194 -85h271v-48z" />
    <glyph glyph-name="afii10036" unicode="&#xd2;" horiz-adv-x="600" 
d="M327 0h-54v652h-293v48h640v-48h-293v-652z" />
    <glyph glyph-name="afii10037" unicode="&#xd3;" horiz-adv-x="610" 
d="M282 0h-60l63 119l-315 581h60l283 -527l267 527h60z" />
    <glyph glyph-name="afii10038" unicode="&#xd4;" horiz-adv-x="882" 
d="M414 700h54v-53h93q50 0 80 -3t70 -21t67 -53q54 -70 54 -211q0 -146 -47 -212q-60 -84 -202 -84h-115v-63h-54v63h-115q-142 0 -202 84q-47 66 -47 212q0 141 54 211q27 35 67 53t70 21t80 3h93v53zM414 111v488h-119q-32 0 -55 -3t-55.5 -21.5t-50.5 -53.5
q-26 -49 -26 -158q0 -119 21 -165q25 -55 74 -71t121 -16h90zM468 111h90q72 0 121 16t74 71q21 46 21 165q0 109 -26 158q-18 35 -50.5 53.5t-55.5 21.5t-55 3h-119v-488z" />
    <glyph glyph-name="afii10039" unicode="&#xd5;" horiz-adv-x="560" 
d="M580 0h-64l-236 316l-236 -316h-64l271 355l-263 345h64l228 -306l228 306h64l-263 -345z" />
    <glyph glyph-name="afii10040" unicode="&#xd6;" horiz-adv-x="710" 
d="M720 0h-557q-51 0 -69 15q-24 19 -24 65v620h54v-605q0 -30 5 -36q8 -11 32 -11h408v652h54v-652h97v-48z" />
    <glyph glyph-name="afii10041" unicode="&#xd7;" horiz-adv-x="654" 
d="M584 0h-54v315h-324q-77 0 -118 52q-28 37 -28 107v226h54v-228q0 -56 21 -80q26 -29 82 -29h313v337h54v-700z" />
    <glyph glyph-name="afii10042" unicode="&#xd8;" horiz-adv-x="974" 
d="M460 700h54v-652h303q21 0 28 11q5 8 5 30v611h54v-625q0 -39 -17 -56q-18 -19 -58 -19h-684q-40 0 -58 19q-17 17 -17 56v625h54v-611q0 -22 5 -30q7 -11 28 -11h303v652z" />
    <glyph glyph-name="afii10043" unicode="&#xd9;" horiz-adv-x="991" 
d="M1001 48v-48h-856q-40 0 -58 19q-17 17 -17 56v625h54v-611q0 -22 5 -30q7 -11 28 -11h303v652h54v-652h336v652h54v-652h97z" />
    <glyph glyph-name="afii10044" unicode="&#xda;" horiz-adv-x="732" 
d="M-10 652v48h106q38 0 60 -22q19 -20 19 -70v-227h353q93 0 128 -52q26 -38 26 -137q0 -95 -32 -136q-43 -56 -136 -56h-322q-34 0 -54 23q-17 20 -17 61v519q0 25 -9 37q-10 12 -27 12h-95zM175 333v-241q0 -23 6 -32q8 -12 39 -12h291q60 0 88 31q25 27 25 111
q0 102 -28 126q-19 17 -61 17h-360z" />
    <glyph glyph-name="afii10045" unicode="&#xdb;" horiz-adv-x="841" 
d="M70 700h54v-319h353q93 0 128 -52q26 -38 26 -137q0 -95 -32 -136q-43 -56 -136 -56h-322q-34 0 -54 23q-17 20 -17 61v616zM124 333v-241q0 -23 6 -32q8 -12 39 -12h291q60 0 88 31q25 27 25 111q0 102 -28 126q-19 17 -61 17h-360zM771 0h-54v700h54v-700z" />
    <glyph glyph-name="afii10046" unicode="&#xdc;" 
d="M70 700h54v-319h353q93 0 128 -52q26 -38 26 -137q0 -95 -32 -136q-43 -56 -136 -56h-322q-34 0 -54 23q-17 20 -17 61v616zM124 333v-241q0 -23 6 -32q8 -12 39 -12h291q60 0 88 31q25 28 25 115q0 98 -28 122q-19 17 -61 17h-360z" />
    <glyph glyph-name="afii10047" unicode="&#xdd;" horiz-adv-x="656" 
d="M50 0v48h274q94 0 152 52q45 41 59.5 99t12.5 134h-474v48h474q4 129 -52 198q-59 73 -158 73h-278v48h254q135 0 210 -73q51 -49 66.5 -114.5t15.5 -156.5q0 -110 -20 -179t-73 -114q-76 -63 -199 -63h-264z" />
    <glyph glyph-name="afii10048" unicode="&#xde;" horiz-adv-x="936" 
d="M124 383h83q-2 71 20.5 139.5t62.5 109.5q33 33 83 51t86.5 21.5t87.5 3.5t87.5 -3.5t86 -21.5t83.5 -51q82 -81 82 -282t-82 -282q-34 -33 -83.5 -51t-86 -21.5t-87.5 -3.5t-87.5 3.5t-86.5 21.5t-83 51q-42 42 -65 116t-18 151h-83v-335h-54v700h54v-317zM265 350
q0 -53 2.5 -87t16.5 -80t41 -76q28 -31 72 -47t72.5 -18t76.5 -2q80 0 131.5 12.5t89.5 54.5q27 30 41.5 76t17 79.5t2.5 87.5t-2.5 87.5t-17 79.5t-41.5 76q-38 42 -89.5 54.5t-131.5 12.5q-48 0 -76.5 -2t-72.5 -18t-72 -47q-27 -30 -41 -76t-16.5 -80t-2.5 -87z" />
    <glyph glyph-name="afii10049" unicode="&#xdf;" horiz-adv-x="691" 
d="M621 0h-54v605q0 23 -14 36q-12 11 -36 11h-286q-58 0 -83 -25q-33 -32 -33 -131q0 -93 19 -124q24 -39 72 -39h217q24 0 24 -23v-16q0 -15 -19 -30l-309 -264h-79l328 278v5h-155q-84 0 -125 61q-31 48 -31 146q0 103 31 150q39 60 133 60h295q50 0 76 -24
q29 -27 29 -83v-593z" />
    <glyph glyph-name="afii10065" unicode="&#xe0;" horiz-adv-x="505" 
d="M70 530h260q59 0 93 -37q32 -34 32 -106v-317q0 -38 -18 -55q-16 -15 -60 -15h-204q-66 0 -96 24q-47 38 -47 140q0 88 44 125q34 28 99 28h230v79q0 38 -20 63q-20 24 -56 24h-257v47zM403 270h-242q-39 0 -58 -26q-17 -22 -17 -82q0 -66 21 -92q19 -23 52 -23h214
q16 0 23 6t7 18v199z" />
    <glyph glyph-name="afii10066" unicode="&#xe1;" horiz-adv-x="531" 
d="M467 653h-230q-64 0 -99 -35q-34 -34 -36 -88h186q125 0 178 -84q35 -55 35 -176q0 -132 -37 -192q-52 -84 -191 -84q-27 0 -48.5 2.5t-50.5 10.5t-54 27t-42 49q-28 48 -28 133v278q0 80 27 125q24 40 67 60.5t90 20.5h233v-47zM102 483v-278q0 -68 27 -106
q39 -58 142 -58q96 0 135 46q39 47 39 190q0 40 -1.5 62t-11 54t-28.5 51q-37 39 -113 39h-189z" />
    <glyph glyph-name="afii10067" unicode="&#xe2;" horiz-adv-x="498" 
d="M50 63v404q0 28 17 45q18 18 45 18h231q67 0 98 -39q27 -33 27 -103q0 -55 -20 -80q-20 -26 -53 -31v-2q35 -7 55 -34q18 -24 18 -80q0 -90 -35 -128q-31 -33 -80 -33h-246q-29 0 -44 17q-13 14 -13 46zM102 300h232q39 0 58 22q20 22 20 72q0 51 -22 71q-19 18 -56 18
h-211q-11 0 -16 -5t-5 -14v-164zM102 253v-173q0 -18 6 -25q7 -8 26 -8h189q51 0 70 23t19 82q0 54 -19 77q-20 24 -59 24h-232z" />
    <glyph glyph-name="afii10068" unicode="&#xe3;" horiz-adv-x="438" 
d="M102 0h-52v454q0 38 8 51q14 25 52 25h338v-47h-318q-16 0 -22 -8t-6 -30v-445z" />
    <glyph glyph-name="afii10069" unicode="&#xe4;" horiz-adv-x="522" 
d="M33 47l171 443q17 46 57 46t57 -46l171 -443h43v-47h-542v47h43zM249 468l-161 -421h346l-161 421q-6 15 -12 15t-12 -15z" />
    <glyph glyph-name="afii10070" unicode="&#xe5;" horiz-adv-x="517" 
d="M473 0h-260q-91 0 -140 65q-28 36 -35.5 81t-7.5 117q0 47 3 79t20 73.5t48 67.5q56 47 166 47q83 0 135 -30q85 -53 85 -168q0 -50 -22 -69q-18 -16 -56 -16h-323q-2 -69 9 -108q11 -38 40.5 -65t77.5 -27h260v-47zM86 294h323q22 0 22 35q0 66 -36 108q-18 21 -43.5 32
t-44 12.5t-49.5 1.5q-34 0 -55 -2.5t-48 -17.5t-44 -44q-23 -39 -25 -125z" />
    <glyph glyph-name="afii10072" unicode="&#xe6;" horiz-adv-x="716" 
d="M384 0h-52v530h52v-530zM726 0h-74l-207 209q-35 37 -35 61q0 31 42 73l188 187h71l-226 -226q-19 -19 -19 -30q0 -13 19 -32zM-10 0l241 242q19 19 19 32q0 11 -19 30l-226 226h71l188 -187q42 -42 42 -73q0 -24 -35 -61l-207 -209h-74z" />
    <glyph glyph-name="afii10073" unicode="&#xe7;" horiz-adv-x="482" 
d="M40 0v47h277q36 0 52 23q17 23 17 81q0 56 -26 80q-22 20 -61 20h-244v47h251q37 0 57 22q20 21 20 71q0 49 -20 71q-19 21 -56 21h-257v47h262q61 0 94 -33t33 -102q0 -59 -20 -89q-17 -24 -45 -31v-3q26 -6 44 -30q24 -32 24 -90q0 -84 -39 -121q-33 -31 -90 -31h-273z
" />
    <glyph glyph-name="afii10074" unicode="&#xe8;" horiz-adv-x="543" 
d="M493 0h-52v461q0 12 -5 12q-3 0 -11 -12l-270 -429q-25 -38 -57 -38q-23 0 -35.5 14.5t-12.5 40.5v481h52v-461q0 -13 6 -13q4 0 11 13l273 435q20 32 55 32q46 0 46 -61v-475z" />
    <glyph glyph-name="afii10075" unicode="&#xe9;" horiz-adv-x="543" 
d="M493 0h-52v461q0 12 -5 12q-3 0 -11 -12l-270 -429q-25 -38 -57 -38q-23 0 -35.5 14.5t-12.5 40.5v481h52v-461q0 -13 6 -13q4 0 11 13l273 435q20 32 55 32q46 0 46 -61v-475zM275 607q43 0 65 20q17 16 26 43h60q-16 -51 -49 -79q-37 -32 -102 -32t-102 32
q-33 28 -49 79h60q9 -27 26 -43q22 -20 65 -20z" />
    <glyph glyph-name="afii10076" unicode="&#xea;" horiz-adv-x="448" 
d="M102 0h-52v530h52v-530zM458 0h-74l-223 210q-34 31 -34 63q0 30 41 69l202 188h71l-236 -223q-22 -22 -22 -34q0 -13 16 -29z" />
    <glyph glyph-name="afii10077" unicode="&#xeb;" horiz-adv-x="482" 
d="M-10 0l199 494q17 42 52 42t52 -42l199 -494h-59l-182 464q-5 16 -10 16t-10 -16l-182 -464h-59z" />
    <glyph glyph-name="afii10078" unicode="&#xec;" horiz-adv-x="678" 
d="M565 463l-178 -431q-8 -19 -21.5 -28.5t-26.5 -9.5t-26.5 9.5t-21.5 28.5l-178 431q-3 9 -7 9t-4 -7v-465h-52v481q0 55 50 55q36 0 51 -36l177 -426q8 -18 11 -18t11 18l177 426q15 36 51 36q50 0 50 -55v-481h-52v465q0 7 -4 7t-7 -9z" />
    <glyph glyph-name="afii10079" unicode="&#xed;" horiz-adv-x="522" 
d="M472 0h-52v250h-318v-250h-52v530h52v-233h318v233h52v-530z" />
    <glyph glyph-name="afii10080" unicode="&#xee;" horiz-adv-x="584" 
d="M30 268q0 145 66 210q59 58 196 58t196 -58q66 -65 66 -210q0 -148 -66 -214q-61 -60 -196 -60t-196 60q-66 66 -66 214zM86 263q0 -124 43 -171q47 -51 163 -51t163 51q43 47 43 171q0 130 -42 177q-45 49 -164 49t-164 -49q-42 -47 -42 -177z" />
    <glyph glyph-name="afii10081" unicode="&#xef;" horiz-adv-x="520" 
d="M115 530h290q39 0 54 -23q11 -17 11 -54v-453h-52v453q0 20 -5 25t-17 5h-272q-12 0 -17 -5t-5 -25v-453h-52v453q0 37 11 54q15 23 54 23z" />
    <glyph glyph-name="afii10082" unicode="&#xf0;" horiz-adv-x="512" 
d="M102 0v-170h-52v634q0 31 25 50q21 16 59 16h134q101 0 158 -61q25 -26 38 -63.5t15.5 -64.5t2.5 -68q0 -130 -42 -194q-30 -45 -74.5 -62t-113.5 -17h-150zM102 47h171q83 0 123 60q30 46 30 159q0 97 -19 140q-18 39 -53 58t-75 19h-153q-7 0 -16 -7q-8 -7 -8 -19v-410
z" />
    <glyph glyph-name="afii10083" unicode="&#xf1;" horiz-adv-x="476" 
d="M446 0h-212q-100 0 -156 67q-29 35 -38.5 79.5t-9.5 111.5q0 70 11.5 122.5t48.5 90.5q59 59 165 59h179v-47h-185q-62 0 -101.5 -29.5t-51.5 -78.5q-10 -41 -10 -124t18 -125q35 -79 156 -79h186v-47z" />
    <glyph glyph-name="afii10084" unicode="&#xf2;" horiz-adv-x="432" 
d="M242 0h-52v483h-200v47h452v-47h-200v-483z" />
    <glyph glyph-name="afii10085" unicode="&#xf3;" horiz-adv-x="497" 
d="M507 530l-317 -701h-56l80 174l-224 527h56l196 -465l209 465h56z" />
    <glyph glyph-name="afii10086" unicode="&#xf4;" horiz-adv-x="716" 
d="M332 700h52v-170h93q120 0 172 -85q37 -59 37 -186q0 -120 -44 -185q-51 -74 -169 -74h-89v-170h-52v170h-89q-118 0 -169 74q-44 65 -44 185q0 127 37 186q52 85 172 85h93v170zM332 47v436h-93q-77 0 -116 -56q-37 -52 -37 -174q0 -96 30 -144q39 -62 125 -62h91z
M384 47h91q86 0 125 62q30 48 30 144q0 122 -37 174q-39 56 -116 56h-93v-436z" />
    <glyph glyph-name="afii10087" unicode="&#xf5;" horiz-adv-x="430" 
d="M440 0h-63l-162 233l-162 -233h-63l197 272l-188 258h61l155 -219l155 219h61l-187 -258z" />
    <glyph glyph-name="afii10088" unicode="&#xf6;" horiz-adv-x="528" 
d="M538 0h-412q-40 0 -57 14q-19 16 -19 54v462h52v-447q0 -22 7 -29t30 -7h278v483h52v-483h69v-47z" />
    <glyph glyph-name="afii10089" unicode="&#xf7;" horiz-adv-x="510" 
d="M460 0h-52v249h-233q-82 0 -112 36q-23 28 -23 106v139h52v-151q0 -44 13 -60q17 -23 62 -23h241v234h52v-530z" />
    <glyph glyph-name="afii10090" unicode="&#xf8;" horiz-adv-x="780" 
d="M364 530h52v-483h234q16 0 23 10q5 7 5 26v447h52v-461q0 -38 -16 -53q-17 -16 -68 -16h-512q-51 0 -68 16q-16 15 -16 53v461h52v-447q0 -19 5 -26q7 -10 23 -10h234v483z" />
    <glyph glyph-name="afii10091" unicode="&#xf9;" horiz-adv-x="789" 
d="M364 530h52v-483h262v483h52v-483h69v-47h-665q-51 0 -68 16q-16 15 -16 53v461h52v-447q0 -19 5 -26q7 -10 23 -10h234v483z" />
    <glyph glyph-name="afii10092" unicode="&#xfa;" horiz-adv-x="537" 
d="M-10 530h94q24 0 37 -13q14 -14 14 -45v-169h245q58 0 90 -31q37 -36 37 -115q0 -94 -39 -131q-13 -12 -31 -18t-30.5 -7t-36.5 -1h-230q-32 0 -44 12q-13 13 -13 49v392q0 15 -4 22q-6 8 -23 8h-66v47zM135 256v-178q0 -19 3 -24q4 -7 22 -7h220q37 0 54 25q17 23 17 86
q0 52 -18 75q-19 23 -53 23h-245z" />
    <glyph glyph-name="afii10093" unicode="&#xfb;" horiz-adv-x="636" 
d="M50 530h52v-227h245q58 0 90 -31q37 -36 37 -115q0 -94 -39 -131q-13 -12 -31 -18t-30.5 -7t-36.5 -1h-230q-32 0 -44 12q-13 13 -13 49v469zM102 256v-178q0 -18 3 -24q4 -7 22 -7h220q37 0 54 25q17 23 17 86q0 52 -18 75q-19 23 -53 23h-245zM534 0v530h52v-530h-52z
" />
    <glyph glyph-name="afii10094" unicode="&#xfc;" horiz-adv-x="504" 
d="M50 530h52v-227h245q58 0 90 -31q37 -36 37 -115q0 -94 -39 -131q-13 -12 -31 -18t-30.5 -7t-36.5 -1h-230q-32 0 -44 12q-13 13 -13 49v469zM102 256v-178q0 -18 3 -24q4 -7 22 -7h220q37 0 54 25q17 23 17 86q0 52 -18 75q-19 23 -53 23h-245z" />
    <glyph glyph-name="afii10095" unicode="&#xfd;" horiz-adv-x="494" 
d="M30 0v47h228q103 0 132 79q18 49 18 130h-364v47h364q2 71 -26 119q-34 61 -123 61h-222v47h223q95 0 149 -58q28 -30 41.5 -74.5t13.5 -120.5q0 -147 -51 -211q-24 -30 -59.5 -45.5t-60.5 -18t-63 -2.5h-200z" />
    <glyph glyph-name="afii10096" unicode="&#xfe;" horiz-adv-x="726" 
d="M102 297h84q5 124 65 181q59 58 190 58t190 -58q65 -64 65 -210q0 -148 -65 -214q-60 -60 -190 -60q-128 0 -190 60q-68 67 -65 196h-84v-250h-52v530h52v-233zM242 263q0 -124 41 -171q44 -51 158 -51t158 51q41 47 41 171q0 131 -40 177q-42 49 -159 49t-159 -49
q-40 -46 -40 -177z" />
    <glyph glyph-name="afii10097" unicode="&#xff;" horiz-adv-x="521" 
d="M30 0l200 190q9 9 9 12q0 6 -8 6h-57q-69 0 -102 46q-27 39 -27 119q0 85 35 122q33 35 88 35h224q44 0 61 -16q18 -17 18 -65v-449h-52v445q0 22 -6 30q-7 8 -33 8h-213q-34 0 -51 -27q-15 -24 -15 -81q0 -62 13 -87q18 -33 63 -33h98q40 0 40 -30q0 -20 -14 -34
l-201 -191h-70z" />
    </font>
</defs>
</svg>
